<svg width="43.000000" height="43.000000" viewBox="0 0 43 43" fill="none" xmlns="http://www.w3.org/2000/svg" xmlns:xlink="http://www.w3.org/1999/xlink">
	<desc>
			Created with Pixso.
	</desc>
	<defs/>
	<rect id="Rectangle 489" width="43.000000" height="43.000000" fill="#292929" fill-opacity="1.000000"/>
	<path id="Vector" d="M21.35 12C23.89 12 24.2 12 25.2 12.05C26.2 12.1 26.87 12.25 27.47 12.49C28.09 12.72 28.61 13.05 29.13 13.56C29.6 14.03 29.97 14.6 30.2 15.22C30.44 15.82 30.59 16.5 30.64 17.49C30.68 18.49 30.7 18.8 30.7 21.35C30.7 23.89 30.69 24.2 30.64 25.2C30.59 26.2 30.44 26.87 30.2 27.47C29.97 28.09 29.6 28.66 29.13 29.13C28.66 29.6 28.09 29.97 27.47 30.2C26.87 30.44 26.2 30.59 25.2 30.64C24.2 30.68 23.89 30.7 21.35 30.7C18.8 30.7 18.49 30.69 17.49 30.64C16.5 30.59 15.82 30.44 15.22 30.2C14.6 29.97 14.03 29.6 13.56 29.13C13.09 28.66 12.72 28.09 12.49 27.47C12.25 26.87 12.1 26.2 12.05 25.2C12.01 24.2 12 23.89 12 21.35C12 18.8 12 18.49 12.05 17.49C12.1 16.49 12.25 15.82 12.49 15.22C12.72 14.6 13.09 14.03 13.56 13.56C14.03 13.09 14.6 12.72 15.22 12.49C15.82 12.25 16.49 12.1 17.49 12.05C18.49 12.01 18.8 12 21.35 12ZM21.35 16.67C20.11 16.67 18.92 17.16 18.04 18.04C17.16 18.92 16.67 20.11 16.67 21.35C16.67 22.59 17.16 23.77 18.04 24.65C18.92 25.53 20.11 26.02 21.35 26.02C22.59 26.02 23.77 25.53 24.65 24.65C25.53 23.77 26.02 22.59 26.02 21.35C26.02 20.11 25.53 18.92 24.65 18.04C23.77 17.16 22.59 16.67 21.35 16.67ZM27.42 16.44C27.42 16.13 27.3 15.83 27.08 15.61C26.86 15.39 26.56 15.27 26.25 15.27C25.94 15.27 25.65 15.39 25.43 15.61C25.21 15.83 25.09 16.13 25.09 16.44C25.09 16.75 25.21 17.04 25.43 17.26C25.65 17.48 25.94 17.61 26.25 17.61C26.56 17.61 26.86 17.48 27.08 17.26C27.3 17.04 27.42 16.75 27.42 16.44ZM21.35 18.54C22.09 18.54 22.8 18.84 23.33 19.36C23.85 19.89 24.15 20.6 24.15 21.35C24.15 22.09 23.85 22.8 23.33 23.33C22.8 23.85 22.09 24.15 21.35 24.15C20.6 24.15 19.89 23.85 19.36 23.33C18.84 22.8 18.54 22.09 18.54 21.35C18.54 20.6 18.84 19.89 19.36 19.36C19.89 18.84 20.6 18.54 21.35 18.54Z" fill="#E74C3C" fill-opacity="1.000000" fill-rule="nonzero"/>
</svg>
