<svg width="43.000000" height="43.000000" viewBox="0 0 43 43" fill="none" xmlns="http://www.w3.org/2000/svg" xmlns:xlink="http://www.w3.org/1999/xlink">
	<desc>
			Created with Pixso.
	</desc>
	<defs/>
	<rect id="Rectangle 488" width="43.000000" height="43.000000" fill="#292929" fill-opacity="1.000000"/>
	<path id="Vector" d="M32.99 14.22C32.13 14.6 31.22 14.85 30.28 14.96C31.27 14.37 32.01 13.44 32.36 12.35C31.43 12.9 30.42 13.28 29.36 13.49C28.65 12.73 27.71 12.23 26.69 12.06C25.66 11.89 24.61 12.06 23.69 12.55C22.77 13.04 22.04 13.82 21.61 14.77C21.19 15.72 21.08 16.78 21.32 17.79C19.45 17.7 17.61 17.21 15.93 16.36C14.26 15.51 12.78 14.32 11.6 12.86C11.18 13.58 10.96 14.4 10.96 15.24C10.96 16.87 11.79 18.32 13.06 19.16C12.31 19.14 11.57 18.94 10.92 18.57L10.92 18.63C10.92 19.72 11.3 20.78 11.99 21.62C12.68 22.47 13.64 23.04 14.7 23.26C14.01 23.45 13.28 23.48 12.57 23.34C12.87 24.28 13.46 25.1 14.25 25.69C15.04 26.28 16 26.6 16.98 26.62C16 27.39 14.88 27.96 13.68 28.29C12.48 28.63 11.23 28.72 10 28.57C12.15 29.96 14.66 30.7 17.23 30.7C25.91 30.7 30.65 23.5 30.65 17.27C30.65 17.07 30.65 16.86 30.64 16.66C31.56 15.99 32.36 15.16 33 14.22L32.99 14.22Z" fill="#E74C3C" fill-opacity="1.000000" fill-rule="nonzero"/>
</svg>
